<?xml version="1.0" standalone="no"?>
<!DOCTYPE svg PUBLIC "-//W3C//DTD SVG 20010904//EN"
 "http://www.w3.org/TR/2001/REC-SVG-20010904/DTD/svg10.dtd">
<svg version="1.0" xmlns="http://www.w3.org/2000/svg"
 width="194.000000pt" height="214.000000pt" viewBox="0 0 194.000000 214.000000"
 preserveAspectRatio="xMidYMid meet">

<g transform="translate(0.000000,214.000000) scale(0.100000,-0.100000)"
fill="#000000" stroke="none">
<path d="M985 2041 c-18 -8 -93 -102 -137 -172 -31 -49 -58 -159 -58 -233 1
-165 42 -249 207 -417 74 -77 131 -144 143 -171 22 -48 26 -140 9 -202 -13
-47 -79 -120 -134 -149 -55 -29 -155 -29 -211 0 -45 24 -109 89 -127 131 -7
17 -13 115 -17 255 l-5 229 -28 24 c-48 41 -83 33 -144 -32 -68 -71 -124 -167
-160 -269 -25 -73 -27 -93 -28 -225 0 -124 3 -156 23 -220 28 -89 88 -204 140
-268 95 -116 254 -214 407 -249 118 -27 314 -25 418 5 245 70 417 246 478 492
18 72 21 103 16 210 -6 150 -28 233 -97 375 -66 138 -127 211 -346 419 -104
98 -198 193 -209 210 -15 23 -21 54 -25 123 -5 75 -10 97 -25 112 -24 24 -63
33 -90 22z"/>
</g>
</svg>
