<svg version="1.2" xmlns="http://www.w3.org/2000/svg" viewBox="0 0 263 237" width="263" height="237">
	<title>teste-svg</title>
	<style>
		.s0 { fill: none } 
		.s1 { fill: #ffffff } 
	</style>
	<g id="g2">
		<path id="path1" fill-rule="evenodd" class="s0" d="m0 0h263v237h-263zm114.8 21.8c-1.9 1.9-4 8.8-5.8 19.3-1.1 6.1-1.4 6.7-4.8 8.4-2 1.1-6 3.4-8.7 5.2l-5.1 3.3-10.7-3.5c-11.9-3.9-15.2-4.2-18.5-1.9-5.8 4-17.9 24.7-18.9 32.2-0.7 5 0.2 6.2 10.7 15.8l8.2 7.4v20.5l-7.8 6.9c-13.1 11.5-13.6 13.3-7.5 25.5 4.9 9.9 8.3 15.2 12.8 20.1 4.5 5.1 6.7 5.1 21.2 0.4l11.1-3.5 3.2 2.4c1.8 1.4 5.6 3.6 8.4 5l5.2 2.6 1.2 6.8c3.2 17.5 4.7 20.6 10.9 22.3 5 1.4 29.8 1.2 34-0.3 5.2-1.8 6.9-5.1 9.3-17.5l2.1-11.3 6.1-3.1c3.4-1.6 7.1-3.9 8.3-5l2.2-2 11.2 3.6c15 4.8 16.7 4.8 21.7-0.9 7.7-8.7 16.2-25.1 16.2-31.1 0-3-1-4.4-7.4-10.5-4.1-3.9-8.4-7.8-9.5-8.6-1.9-1.3-2.1-2.4-2.1-11.8v-10.4l6.2-5.8c13-12.1 12.8-11.8 12.8-15.8 0-5.8-8.7-22.8-15.2-29.8-6.6-7-7.6-7.1-22.5-2.2l-10.6 3.5-5.2-3.4c-2.8-1.9-6.7-4.2-8.6-5.1-3.5-1.7-3.6-1.9-5.4-11.4-2-10.7-3.4-15-5.8-16.9-0.9-0.8-4.7-2-8.4-2.8-12.2-2.5-30.3-0.8-34.5 3.4z"/>
	</g>
	<path id="path7" fill-rule="evenodd" class="s1" d="m120.3 216.6c-5.9-1.6-7.7-4.9-10.6-20.2l-1.7-8.9-4.9-2.5c-2.7-1.3-6.5-3.6-8.4-4.9l-3.6-2.5-4.4 1.3c-22.8 7-22.7 7-27.8 1.6-4.3-4.7-7.7-10-12.4-19.5-6.1-12.4-5.7-13.8 7.2-25.3l7.6-6.8v-21.5l-4.9-4.3c-7.3-6.4-13.3-12.7-13.7-14.6-0.7-2.7 0.8-7.8 4.3-14.7 4-7.9 9.1-15.6 12.8-19.2 2.8-2.7 2.8-2.7 6.9-2.7 3.1 0.1 6.3 0.8 14 3.3l9.9 3.1 6.2-3.9c3.5-2.1 7.2-4.4 8.3-4.9 1-0.6 2.2-1.5 2.5-2.2 0.4-0.6 1.5-4.9 2.4-9.6 2.1-9.9 3.9-15 5.8-16.2 6.1-4 23.1-5.1 34.9-2.3 8.2 1.9 9.1 3.3 12.2 17.7 1.1 5.4 2.4 10.3 2.8 10.8 0.4 0.5 1.6 1.3 2.6 1.8 1.1 0.6 4.7 2.8 8.1 4.9l6.3 3.9 9.6-3.1c5.3-1.7 11.3-3.3 13.4-3.5l3.8-0.3 3.7 3.6c4.8 4.5 9 10.7 13.2 19.3 4.1 8.5 5 12.4 3.6 15.3-0.6 1.2-4.8 5.6-9.5 9.9l-8.4 7.9-0.1 21.2 5.9 5.6c12.6 11.6 13.5 12.9 12.3 17.9-1.5 6.4-9.2 20.4-15.3 27.7-4.8 5.8-6.7 5.9-22.1 1.1-5.4-1.7-10.1-3.1-10.5-3.1-0.5 0-2.1 1-3.7 2.2-1.5 1.2-5.2 3.4-8.2 4.9l-5.3 2.7-0.7 3.5c-3.6 18.9-4.9 22.2-9.5 24.5-2.9 1.5-3.4 1.6-17.3 1.7-10.5 0.1-15.2-0.1-17.3-0.7zm24.2-69.3c5-0.7 8.2-2.3 12.2-6 10.6-9.9 13.7-26.4 7-37.8-2.9-4.8-9.5-11.2-13.7-13.2-5.2-2.5-12.9-3.7-18.2-2.9-8.5 1.3-17.1 7.4-22 15.4-4.8 7.9-5.1 20.6-0.8 28.9 3.9 7.3 12.2 14.4 18.2 15.6 3.8 0.7 12.3 0.7 17.3 0z"/>
	<path id="path8" fill-rule="evenodd" class="s1" d="m120.3 216.6c-5.9-1.6-7.7-4.9-10.6-20.2l-1.7-8.9-4.9-2.5c-2.7-1.3-6.5-3.6-8.4-4.9l-3.5-2.5-4.4 1.4c-22.5 6.7-22.7 6.8-27.1 2.4-3.9-3.8-8.6-11.1-13.1-20.3-6.2-12.6-5.8-13.9 7.1-25.4l7.6-6.8v-21.2l-3.2-2.9c-8.2-7.4-14.5-13.9-15.1-15.5-0.4-1-0.6-2.8-0.4-4.3 1-6.4 9.8-22.4 16-29.1l3.8-4h4.2c3.2 0 6.4 0.8 14.1 3.2l9.9 3.2 5.6-3.6c3.1-1.9 6.9-4.3 8.5-5.2 1.6-0.8 3-2.1 3.2-2.6 0.3-0.6 1.2-4.8 2.2-9.4 0.9-4.5 2.3-9.8 3.1-11.8 1.3-3.2 1.9-3.8 4.2-5 8.4-4.3 32.6-3.9 39.3 0.6 2.8 1.9 3.8 4.5 6.2 15.7 1.2 5.4 2.5 10.3 2.9 10.7 0.3 0.5 1.5 1.3 2.5 1.8 1.1 0.6 4.7 2.8 8.1 4.9l6.3 3.9 9.6-3.1c5.3-1.7 11.3-3.3 13.4-3.5l3.8-0.3 3.7 3.6c4.8 4.5 9 10.7 13.2 19.3 4.1 8.6 5 12.3 3.6 15.3-0.6 1.2-4.8 5.6-9.5 10l-8.4 7.8-0.1 21.2 5.6 5.2c12.8 11.8 13.8 13.3 12.7 18.2-1.4 6.2-9.3 20.5-15.4 27.8-4.8 5.8-6.7 5.9-22.2 1.1-5.5-1.7-10.2-3.1-10.6-3.1-0.3 0-1.9 1-3.5 2.2-1.5 1.2-5.2 3.4-8.2 4.9l-5.3 2.7-0.7 3.5c-3.6 18.9-4.9 22.2-9.5 24.5-2.9 1.5-3.4 1.6-17.3 1.7-10.5 0.1-15.2-0.1-17.3-0.7zm24.2-69.3c5-0.7 8.2-2.3 12.1-6 5.9-5.5 9.2-11.9 10.3-20.2 1.5-10.7-3-20.7-12.5-28-3.8-3-8.3-4.7-14.7-5.6-5.7-0.9-10.7-0.1-16.2 2.6-5.1 2.4-12.4 9.7-14.8 14.7-3.6 7.4-3.5 18.8 0.2 26.4 3.6 7.3 12.2 14.9 18.3 16.1 3.8 0.7 12.3 0.7 17.3 0z"/>
</svg>