<?xml version="1.0" encoding="UTF-8" standalone="no"?>
<svg
   version="1.0"
   width="151.000000pt"
   height="146.000000pt"
   viewBox="0 0 151.000000 146.000000"
   preserveAspectRatio="xMidYMid meet"
   id="svg1"
   sodipodi:docname="xmark.svg"
   inkscape:version="1.3.2 (091e20e, 2023-11-25, custom)"
   xmlns:inkscape="http://www.inkscape.org/namespaces/inkscape"
   xmlns:sodipodi="http://sodipodi.sourceforge.net/DTD/sodipodi-0.dtd"
   xmlns="http://www.w3.org/2000/svg"
   xmlns:svg="http://www.w3.org/2000/svg">
  <defs
     id="defs1" />
  <sodipodi:namedview
     id="namedview1"
     pagecolor="#ffffff"
     bordercolor="#000000"
     borderopacity="0.25"
     inkscape:showpageshadow="2"
     inkscape:pageopacity="0.0"
     inkscape:pagecheckerboard="0"
     inkscape:deskcolor="#d1d1d1"
     inkscape:document-units="pt"
     inkscape:zoom="3.9914384"
     inkscape:cx="110.61175"
     inkscape:cy="92.573145"
     inkscape:window-width="1920"
     inkscape:window-height="991"
     inkscape:window-x="-9"
     inkscape:window-y="-9"
     inkscape:window-maximized="1"
     inkscape:current-layer="svg1" />
  <path
     style="fill:#ffffff;stroke-width:0.250536"
     d="m 167.85929,178.11114 c -2.79049,-0.6194 -5.04178,-1.84949 -7.80037,-4.26206 -1.35939,-1.18888 -12.90019,-12.62577 -25.64622,-25.41532 -22.95413,-23.0325 -28.5978,-28.55216 -29.1936,-28.55216 -0.56918,0 -8.64066,7.77982 -27.552431,26.55684 -18.259957,18.12985 -26.349444,25.96972 -29.524841,28.6138 -2.984072,2.48476 -5.764162,3.32351 -10.436122,3.14858 -2.649852,-0.0992 -3.469432,-0.23443 -5.326705,-0.87877 -2.930782,-1.01677 -4.727279,-2.10973 -6.763614,-4.11489 -2.937225,-2.89227 -3.994455,-6.0595 -4.001314,-11.98708 -0.004,-3.46788 0.407111,-6.21868 1.169157,-7.82278 0.801431,-1.687 8.392635,-9.5174 32.880701,-33.91675 L 80.833983,94.401678 75.24153,88.905522 C 72.165682,85.882634 64.744831,78.606134 58.750751,72.735519 45.775847,60.027869 29.860867,44.008115 26.107907,39.877775 c -1.481214,-1.630157 -2.924944,-3.418344 -3.20829,-3.973748 -0.816144,-1.599775 -1.271432,-4.312124 -1.274614,-7.593431 -0.0048,-4.940471 0.83591,-8.370507 2.658392,-10.846173 3.951481,-5.367707 12.353307,-7.7874021 19.411844,-5.590539 3.118071,0.970453 9.668634,6.966595 33.845731,30.981123 16.450773,16.340157 24.66664,24.359104 26.47811,25.843463 l 1.08555,0.889532 1.31298,-1.195965 c 0.72214,-0.65778 11.91066,-11.756326 24.86339,-24.663432 23.36577,-23.283484 27.55432,-27.251911 31.73165,-30.064047 2.97795,-2.00472 4.53972,-2.569055 7.47727,-2.701862 5.13923,-0.232344 9.85526,1.732535 13.81772,5.756991 3.17283,3.222469 3.4601,4.311387 3.46537,13.135615 l 0.004,6.555429 -29.3352,29.145987 -29.33521,29.145985 8.87994,8.768767 c 4.88397,4.82282 18.08481,17.89236 29.3352,29.04342 l 20.45527,20.27465 v 5.44982 c 0,5.84173 -0.23791,8.33447 -1.04658,10.96577 -0.46026,1.49762 -0.72286,1.87025 -2.67568,3.79686 -2.44446,2.41164 -4.90896,3.86206 -8.0598,4.74342 -2.53875,0.71014 -5.90265,0.86136 -8.13557,0.36573 z"
     id="path2"
     transform="scale(0.75)" />
</svg>
